<svg width="20" height="17" viewBox="0 0 20 17" fill="none" xmlns="http://www.w3.org/2000/svg">
<g id="Group 8">
<path id="Shape" fill-rule="evenodd" clip-rule="evenodd" d="M19.4388 8.59123C19.4388 7.99559 19.3766 7.42286 19.2611 6.87305H10.0547V10.1223H15.3155C15.0889 11.1723 14.4002 12.062 13.3649 12.6576V14.7652H16.524C18.3724 13.3029 19.4388 11.1494 19.4388 8.59123Z" fill="#4285F4"/>
<path id="Shape_2" fill-rule="evenodd" clip-rule="evenodd" d="M10.0547 16.8001C12.694 16.8001 14.9067 16.0479 16.5241 14.765L13.3649 12.6574C12.4896 13.1614 11.3699 13.4592 10.0547 13.4592C7.50875 13.4592 5.35379 11.9815 4.58511 9.99609H1.31934V12.1725C2.92778 14.9177 6.23354 16.8001 10.0547 16.8001Z" fill="#38B000"/>
<path id="Shape_3" fill-rule="evenodd" clip-rule="evenodd" d="M4.58478 9.99532C4.38928 9.49132 4.2782 8.95295 4.2782 8.39932C4.2782 7.84568 4.38928 7.30732 4.58478 6.80332V4.62695H1.31901C0.656971 5.76095 0.279297 7.04386 0.279297 8.39932C0.279297 9.75477 0.656971 11.0377 1.31901 12.1717L4.58478 9.99532Z" fill="#FBBC05"/>
<path id="Shape_4" fill-rule="evenodd" clip-rule="evenodd" d="M10.0547 3.34091C11.4899 3.34091 12.7784 3.76473 13.7915 4.59709L16.5951 2.18782C14.9023 0.832364 12.6896 0 10.0547 0C6.23354 0 2.92778 1.88236 1.31934 4.62764L4.58511 6.804C5.35379 4.81855 7.50875 3.34091 10.0547 3.34091Z" fill="#EA4335"/>
</g>
</svg>
